<mxfile host="app.diagrams.net" modified="2023-12-30T17:48:38.479Z" agent="Mozilla/5.0 (Windows NT 10.0; Win64; x64) AppleWebKit/537.36 (KHTML, like Gecko) Chrome/120.0.0.0 Safari/537.36" version="22.1.16" etag="UXk-AABykLmrHsd9ZY5w" type="github">
  <diagram name="Page-1" id="j0pu52SEufK3131fuLrz">
    <mxGraphModel>
      <root>
        <mxCell id="0" />
        <mxCell id="1" parent="0" />
      </root>
    </mxGraphModel>
  </diagram>
</mxfile>
